<?xml version="1.0" encoding="UTF-8" standalone="no"?>
<svg
   xmlns:dc="http://purl.org/dc/elements/1.1/"
   xmlns:cc="http://creativecommons.org/ns#"
   xmlns:rdf="http://www.w3.org/1999/02/22-rdf-syntax-ns#"
   xmlns:svg="http://www.w3.org/2000/svg"
   xmlns="http://www.w3.org/2000/svg"
   viewBox="0 0 1052.3625 515.125"
   height="515.125"
   width="1052.3625"
   xml:space="preserve"
   version="1.1"
   id="svg2"><metadata
     id="metadata8"><rdf:RDF><cc:Work
         rdf:about=""><dc:format>image/svg+xml</dc:format><dc:type
           rdf:resource="http://purl.org/dc/dcmitype/StillImage" /></cc:Work></rdf:RDF></metadata><defs
     id="defs6"><clipPath
       id="clipPath16"
       clipPathUnits="userSpaceOnUse"><path
         id="path18"
         d="m 0,412.1 841.89,0 L 841.89,0 0,0 0,412.1 Z" /></clipPath><clipPath
       id="clipPath72"
       clipPathUnits="userSpaceOnUse"><path
         id="path74"
         d="m 671.256,137.61 c -5.424,-0.016 -9.644,-4.274 -9.638,-9.724 l 0,0 c 0.007,-5.398 4.324,-9.723 9.691,-9.708 l 0,0 c 5.361,0.015 9.655,4.359 9.649,9.761 l 0,0 c -0.006,5.407 -4.274,9.672 -9.671,9.671 l 0,0 c -0.01,0 -0.021,0 -0.031,0" /></clipPath><linearGradient
       id="linearGradient80"
       spreadMethod="pad"
       gradientTransform="matrix(5.5928574,-85.291077,-85.291077,-5.5928574,665.56726,215.15819)"
       gradientUnits="userSpaceOnUse"
       y2="0"
       x2="1"
       y1="0"
       x1="0"><stop
         id="stop82"
         offset="0"
         style="stop-opacity:1;stop-color:#e62c4b" /><stop
         id="stop84"
         offset="0.0563892"
         style="stop-opacity:1;stop-color:#e62c4b" /><stop
         id="stop86"
         offset="0.547126"
         style="stop-opacity:1;stop-color:#ba354f" /><stop
         id="stop88"
         offset="1"
         style="stop-opacity:1;stop-color:#7f2b38" /></linearGradient><clipPath
       id="clipPath96"
       clipPathUnits="userSpaceOnUse"><path
         id="path98"
         d="m 671.256,173.986 c -5.424,-0.016 -9.644,-4.274 -9.638,-9.723 l 0,0 c 0.007,-5.399 4.324,-9.724 9.691,-9.709 l 0,0 c 5.361,0.016 9.655,4.359 9.649,9.763 l 0,0 c -0.006,5.406 -4.274,9.67 -9.671,9.669 l 0,0 c -0.01,0 -0.021,0 -0.031,0" /></clipPath><linearGradient
       id="linearGradient104"
       spreadMethod="pad"
       gradientTransform="matrix(5.5928574,-85.291077,-85.291077,-5.5928574,667.94196,215.32051)"
       gradientUnits="userSpaceOnUse"
       y2="0"
       x2="1"
       y1="0"
       x1="0"><stop
         id="stop106"
         offset="0"
         style="stop-opacity:1;stop-color:#e62c4b" /><stop
         id="stop108"
         offset="0.0563892"
         style="stop-opacity:1;stop-color:#e62c4b" /><stop
         id="stop110"
         offset="0.547126"
         style="stop-opacity:1;stop-color:#ba354f" /><stop
         id="stop112"
         offset="1"
         style="stop-opacity:1;stop-color:#7f2b38" /></linearGradient><linearGradient
       id="linearGradient128"
       spreadMethod="pad"
       gradientTransform="matrix(5.5928574,-85.291077,-85.291077,-5.5928574,667.81226,215.31201)"
       gradientUnits="userSpaceOnUse"
       y2="0"
       x2="1"
       y1="0"
       x1="0"><stop
         id="stop130"
         offset="0"
         style="stop-opacity:1;stop-color:#e62c4b" /><stop
         id="stop132"
         offset="0.0563892"
         style="stop-opacity:1;stop-color:#e62c4b" /><stop
         id="stop134"
         offset="0.547126"
         style="stop-opacity:1;stop-color:#ba354f" /><stop
         id="stop136"
         offset="1"
         style="stop-opacity:1;stop-color:#7f2b38" /></linearGradient><clipPath
       id="clipPath144"
       clipPathUnits="userSpaceOnUse"><path
         id="path146"
         d="m 0,412.1 841.89,0 L 841.89,0 0,0 0,412.1 Z" /></clipPath></defs><g
     transform="matrix(1.25,0,0,-1.25,0,515.125)"
     id="g10"><g
       id="g12"><g
         clip-path="url(#clipPath16)"
         id="g14"><g
           transform="translate(465.8101,106.4121)"
           id="g20"><path
             id="path22"
             style="fill:#1c1b18;fill-opacity:1;fill-rule:nonzero;stroke:none"
             d="m 0,0 c 0.466,1.19 0.791,1.943 1.06,2.716 5.129,14.705 10.252,29.412 15.376,44.119 0.206,0.591 0.39,1.191 0.632,1.767 0.77,1.829 2.047,2.9 4.145,2.83 1.722,-0.058 3.452,0.044 5.17,-0.06 2.106,-0.128 2.939,-0.965 3.2,-3.031 0.078,-0.619 0.044,-1.252 0.044,-1.879 0.002,-20.14 0.002,-40.28 0.002,-60.419 0,-0.314 0.005,-0.628 -0.003,-0.941 -0.074,-2.615 -1.575,-4.127 -4.075,-4.107 -2.425,0.019 -3.841,1.448 -3.875,4.016 -0.039,2.899 -0.011,5.798 -0.011,8.698 0,13.009 0.001,26.017 0.001,39.026 0,0.77 0,1.541 0,2.311 -0.108,0.032 -0.217,0.064 -0.326,0.096 C 21.11,34.61 20.847,34.091 20.654,33.546 15.013,17.614 9.38,1.68 3.742,-14.253 3.508,-14.915 3.29,-15.593 2.97,-16.214 c -0.666,-1.293 -1.799,-2.02 -3.223,-1.992 -1.421,0.027 -2.215,1.009 -2.657,2.298 -1.677,4.883 -3.367,9.763 -5.038,14.648 -3.952,11.548 -7.895,23.099 -11.846,34.647 -0.148,0.434 -0.339,0.854 -0.627,1.571 -0.629,-0.952 -0.418,-1.794 -0.419,-2.559 -0.013,-15.281 -0.007,-30.562 -0.012,-45.843 0,-0.86 0.026,-1.735 -0.113,-2.577 -0.317,-1.921 -1.787,-3.005 -3.891,-2.981 -2.068,0.023 -3.572,1.185 -3.857,3.05 -0.106,0.692 -0.092,1.406 -0.092,2.11 -0.005,19.983 -0.005,39.966 -0.002,59.949 0,0.627 -0.012,1.259 0.064,1.878 0.238,1.924 1.402,3.19 3.335,3.346 1.71,0.137 3.446,0.097 5.161,-0.008 2.001,-0.122 2.969,-1.616 3.675,-3.231 0.594,-1.358 1.007,-2.796 1.486,-4.203 C -10.37,30.039 -5.657,16.188 -0.937,2.34 -0.721,1.706 -0.441,1.095 0,0" /></g><g
           transform="translate(106.7397,149.5945)"
           id="g24"><path
             id="path26"
             style="fill:#1c1b18;fill-opacity:1;fill-rule:nonzero;stroke:none"
             d="m 0,0 0,-33.922 c 4.821,0.121 9.521,-0.05 14.152,0.432 5.516,0.574 8.196,3.915 8.263,9.54 0.059,5.009 0.057,10.02 0.002,15.029 -0.058,5.26 -2.983,8.609 -8.261,8.978 C 9.64,0.373 5.09,0.205 0.554,0.24 0.414,0.241 0.274,0.122 0,0 m 19.645,-40.593 c 2.435,-4.929 4.827,-9.767 7.217,-14.606 0.243,-0.491 0.507,-0.974 0.713,-1.48 0.781,-1.916 0.417,-3.509 -1.032,-4.628 -1.473,-1.138 -3.578,-1.247 -4.997,0.003 -0.848,0.747 -1.517,1.784 -2.03,2.809 -2.52,5.04 -4.959,10.119 -7.431,15.182 -0.236,0.483 -0.505,0.949 -0.776,1.455 l -11.362,0 c -0.031,-0.785 -0.085,-1.532 -0.086,-2.28 -0.009,-4.7 -0.099,-9.404 0.032,-14.101 0.066,-2.393 -1.638,-4.043 -4.187,-3.941 -2.19,0.089 -3.439,1.291 -3.641,3.506 -0.057,0.622 -0.031,1.253 -0.031,1.879 -10e-4,19.821 -0.003,39.643 0.006,59.464 0.001,0.936 0.008,1.89 0.179,2.804 0.304,1.626 1.201,2.629 2.839,2.639 7.584,0.043 15.235,0.923 22.727,-0.638 6.01,-1.253 10.27,-4.908 11.893,-11.051 0.454,-1.719 0.575,-3.56 0.604,-5.35 0.079,-4.856 0.114,-9.716 -0.012,-14.57 -0.059,-2.253 -0.341,-4.54 -0.858,-6.732 -1.032,-4.374 -3.694,-7.525 -7.805,-9.414 -0.632,-0.291 -1.252,-0.606 -1.962,-0.95" /></g><g
           transform="translate(171.9145,123.0812)"
           id="g28"><path
             id="path30"
             style="fill:#1c1b18;fill-opacity:1;fill-rule:nonzero;stroke:none"
             d="m 0,0 0.013,0 c 0,-5.327 -0.072,-10.656 0.019,-15.981 0.107,-6.257 3.957,-10.871 9.9,-11.974 3.417,-0.635 6.87,-0.694 10.284,-0.024 5.028,0.987 8.195,4.043 9.409,9.014 0.331,1.354 0.461,2.787 0.467,4.185 0.04,9.558 0.039,19.115 0.002,28.673 -0.006,1.478 -0.161,2.975 -0.429,4.43 -0.956,5.207 -4.407,8.619 -9.638,9.12 -3.175,0.305 -6.428,0.311 -9.601,-0.002 C 5.133,26.918 1.559,23.494 0.454,18.289 0.164,16.922 0.035,15.5 0.02,14.101 -0.032,9.401 0,4.701 0,0 m -7.496,-0.035 c -10e-4,5.718 -0.123,11.441 0.06,17.153 0.071,2.229 0.618,4.505 1.314,6.64 1.839,5.638 5.782,9.259 11.483,10.75 6.159,1.609 12.449,1.605 18.626,0.25 7.701,-1.69 12.459,-7.087 13.605,-14.947 0.304,-2.085 0.462,-4.209 0.473,-6.316 0.049,-9.481 0.1,-18.963 -0.031,-28.442 -0.036,-2.549 -0.394,-5.19 -1.154,-7.616 -2.285,-7.291 -7.445,-11.655 -14.846,-13.188 -4.79,-0.992 -9.671,-0.962 -14.465,0.173 -8.623,2.043 -14.612,9.041 -15.014,17.92 -0.266,5.863 -0.05,11.747 -0.051,17.623" /></g><g
           transform="translate(608.7247,56.4932)"
           id="g32"><path
             id="path34"
             style="fill:#1c1b18;fill-opacity:1;fill-rule:nonzero;stroke:none"
             d="m 0,0 c 5.031,0.237 9.945,-0.394 14.836,0.433 4.404,0.744 7.127,3.398 7.342,7.866 0.281,5.86 0.319,11.749 0.081,17.61 -0.19,4.686 -3.208,7.666 -7.956,7.985 C 9.705,34.203 5.075,34.037 0.459,34.065 0.335,34.066 0.21,33.901 0,33.754 L 0,0 Z m 19.638,-6.746 c 1.097,-2.241 2.151,-4.404 3.214,-6.562 1.556,-3.157 3.169,-6.287 4.658,-9.476 0.836,-1.79 0.463,-3.37 -0.809,-4.49 -1.302,-1.148 -3.076,-1.431 -4.572,-0.557 -0.717,0.418 -1.326,1.072 -1.871,1.715 -0.395,0.466 -0.62,1.08 -0.894,1.642 -2.331,4.78 -4.654,9.563 -6.984,14.344 -0.34,0.697 -0.7,1.385 -1.069,2.114 l -11.305,0 c -0.046,-0.875 -0.124,-1.699 -0.127,-2.523 -0.014,-4.62 0.045,-9.24 -0.031,-13.858 -0.048,-2.913 -2.282,-4.498 -5.111,-3.789 -1.638,0.41 -2.523,1.433 -2.668,3.134 -0.047,0.544 -0.022,1.095 -0.023,1.643 0,20.122 0,40.244 10e-4,60.366 0,0.626 -0.029,1.257 0.034,1.878 0.198,1.931 1.19,2.962 3.136,3.185 0.929,0.106 1.876,0.087 2.814,0.076 5.556,-0.062 11.122,0.042 16.665,-0.263 4.948,-0.272 9.224,-2.246 12.399,-6.256 1.918,-2.424 2.971,-5.189 3.015,-8.228 C 30.204,20.774 30.357,14.187 30.065,7.624 29.783,1.312 26.984,-3.626 20.803,-6.128 20.45,-6.27 20.126,-6.484 19.638,-6.746" /></g><g
           transform="translate(292.0751,158.328)"
           id="g36"><path
             id="path38"
             style="fill:#1c1b18;fill-opacity:1;fill-rule:nonzero;stroke:none"
             d="m 0,0 c 6.146,-0.118 11.909,-2.71 16.036,-8.538 1.009,-1.425 1.486,-2.902 0.511,-4.587 -1.408,-2.433 -4.395,-2.844 -6.336,-0.805 -0.539,0.566 -0.986,1.219 -1.519,1.791 -4.844,5.192 -13.21,5.81 -18.836,1.457 -4.063,-3.143 -5.249,-9.107 -0.307,-12.829 2.67,-2.01 5.661,-3.621 8.608,-5.226 3.709,-2.02 7.55,-3.798 11.282,-5.778 3.503,-1.858 6.445,-4.366 8.783,-7.631 5.948,-8.306 2.543,-25.56 -11.956,-28.966 -8.711,-2.047 -16.42,0.585 -22.885,6.696 -1.109,1.049 -1.955,2.456 -2.66,3.832 -0.954,1.86 -0.426,3.769 1.059,4.82 1.494,1.057 3.803,0.914 5.205,-0.417 0.618,-0.586 1.086,-1.33 1.618,-2.005 3.569,-4.534 10.511,-6.798 15.846,-5.168 4.926,1.506 8.277,5.844 8.474,10.966 0.082,2.14 -0.591,4.092 -1.983,5.629 -1.566,1.728 -3.271,3.393 -5.157,4.749 -2.084,1.498 -4.413,2.669 -6.686,3.886 -3.172,1.699 -6.501,3.132 -9.557,5.014 -2.444,1.504 -4.772,3.312 -6.819,5.324 -6.977,6.856 -4.895,18.736 2.614,23.844 C -10.482,-1.097 -5.813,-0.119 0,0" /></g><g
           transform="translate(779.0944,90.6697)"
           id="g40"><path
             id="path42"
             style="fill:#1c1b18;fill-opacity:1;fill-rule:nonzero;stroke:none"
             d="m 0,0 0,-22.408 c 0.894,-0.05 1.721,-0.134 2.547,-0.136 4.621,-0.013 9.243,-0.006 13.865,-0.007 0.626,-0.001 1.255,0.023 1.879,-0.02 2.531,-0.173 4.004,-1.672 3.965,-4.006 -0.038,-2.329 -1.555,-3.988 -3.984,-4.038 -4.385,-0.089 -8.773,-0.032 -13.16,-0.036 -1.631,-0.001 -3.262,0 -5.046,0 l 0,-24.108 c 0.923,0 1.758,0 2.594,0 6.658,0 13.319,-0.103 19.974,0.049 2.674,0.061 4.383,-1.88 4.105,-4.484 -0.196,-1.834 -1.278,-3.01 -3.113,-3.26 -0.618,-0.084 -1.25,-0.079 -1.875,-0.08 -8.147,-0.004 -16.294,-0.003 -24.44,-0.003 -0.079,0 -0.157,0 -0.235,10e-4 -4.158,0.05 -5.135,1.014 -5.136,5.151 -0.006,17.625 -0.002,35.25 -0.002,52.875 0,2.507 -0.02,5.014 0.005,7.52 0.034,3.445 1.41,4.883 4.855,4.898 C 5.414,7.946 14.031,7.942 22.648,7.906 25.332,7.895 26.652,6.755 26.868,4.5 27.131,1.757 25.633,0.047 22.77,0.021 17.209,-0.03 11.647,0.002 6.085,0 4.139,-0.001 2.194,0 0,0" /></g><g
           transform="translate(383.5158,149.9176)"
           id="g44"><path
             id="path46"
             style="fill:#1c1b18;fill-opacity:1;fill-rule:nonzero;stroke:none"
             d="m 0,0 0,-22.552 c 0.908,0 1.738,0 2.569,0 4.7,0 9.4,0.002 14.1,-0.001 0.626,-10e-4 1.258,0.024 1.878,-0.043 2.276,-0.249 3.566,-1.661 3.581,-3.874 0.016,-2.286 -1.368,-4.012 -3.622,-4.117 -3.048,-0.142 -6.108,-0.059 -9.162,-0.065 -3.043,-0.005 -6.086,-10e-4 -9.072,-10e-4 -0.505,-1.857 -0.626,-21.027 -0.151,-24.106 0.78,0 1.614,0 2.447,0 6.737,-10e-4 13.474,0.029 20.211,-0.017 2.965,-0.02 4.656,-2.561 3.66,-5.327 -0.497,-1.377 -1.426,-2.223 -2.913,-2.362 -0.622,-0.058 -1.251,-0.068 -1.876,-0.069 -8.147,-0.004 -16.294,-0.003 -24.441,-0.003 -0.391,0 -0.784,-0.009 -1.174,0.014 -3.062,0.18 -4.066,1.151 -4.129,4.198 -0.063,3.054 -0.019,6.11 -0.019,9.165 0,17.077 -0.002,34.154 10e-4,51.231 10e-4,4.783 1.045,5.845 5.76,5.849 7.911,0.007 15.823,0.002 23.735,0.001 0.548,0 1.098,0.018 1.644,-0.02 2.434,-0.166 3.776,-1.553 3.781,-3.88 C 26.812,1.552 25.449,0.051 22.898,0.027 16.24,-0.034 9.582,0.002 2.923,0 1.998,0 1.073,0 0,0" /></g><g
           transform="translate(532.5411,127.366)"
           id="g48"><path
             id="path50"
             style="fill:#1c1b18;fill-opacity:1;fill-rule:nonzero;stroke:none"
             d="m 0,0 c 1.017,0 1.857,0 2.697,0 4.7,0 9.4,0.003 14.1,-0.003 0.704,-0.002 1.418,0.015 2.109,-0.09 2.085,-0.317 3.28,-1.788 3.254,-3.921 C 22.134,-6.102 20.875,-7.682 18.908,-8.002 18.219,-8.114 17.504,-8.096 16.8,-8.097 12.101,-8.105 7.4,-8.101 2.701,-8.101 l -2.667,0 0,-24.107 c 0.985,0 1.825,0 2.665,0 6.736,-0.001 13.473,0.032 20.21,-0.019 2.839,-0.022 4.496,-2.499 3.605,-5.192 -0.49,-1.479 -1.454,-2.387 -3.05,-2.507 -0.624,-0.047 -1.252,-0.056 -1.878,-0.057 -8.068,-0.003 -16.136,-0.002 -24.205,-0.002 -0.078,0 -0.156,0 -0.235,0 -4.355,0.038 -5.221,0.89 -5.223,5.249 -0.007,19.897 -0.004,39.794 10e-4,59.69 0,0.704 -0.007,1.416 0.088,2.11 0.23,1.687 1.293,2.869 2.961,3.226 0.757,0.162 1.555,0.174 2.335,0.176 8.147,0.011 16.293,0.007 24.44,0.006 0.47,0 0.942,0.015 1.409,-0.022 2.409,-0.189 3.723,-1.615 3.683,-3.973 -0.04,-2.378 -1.355,-3.866 -3.769,-3.892 -6.658,-0.07 -13.317,-0.03 -19.975,-0.033 -0.994,-0.001 -1.987,0 -3.096,0 L 0,0 Z" /></g><g
           transform="translate(722.8311,43.9236)"
           id="g52"><path
             id="path54"
             style="fill:#1c1b18;fill-opacity:1;fill-rule:nonzero;stroke:none"
             d="m 0,0 c 0.414,1.167 0.758,2.026 1.027,2.908 4.892,16.005 9.783,32.009 14.648,48.022 0.522,1.72 1.15,3.239 3.129,3.727 2.535,0.625 4.816,-1.18 4.636,-3.781 C 23.386,50.107 23.142,49.342 22.918,48.595 16.913,28.515 10.9,8.438 4.884,-11.639 c -0.933,-3.112 -2.618,-4.389 -5.375,-4.087 -2.283,0.25 -3.665,1.51 -4.287,3.728 -1.394,4.97 -2.85,9.922 -4.272,14.884 -4.352,15.185 -8.701,30.372 -13.05,45.559 -0.172,0.601 -0.36,1.2 -0.49,1.811 -0.442,2.078 0.534,3.73 2.546,4.354 2.088,0.646 4.041,-0.22 4.703,-2.314 1.179,-3.727 2.22,-7.498 3.309,-11.253 C -8.241,27.975 -4.455,14.905 -0.661,1.838 -0.512,1.323 -0.3,0.827 0,0" /></g><g
           transform="translate(57.1124,149.766)"
           id="g56"><path
             id="path58"
             style="fill:#1c1b18;fill-opacity:1;fill-rule:nonzero;stroke:none"
             d="m 0,0 c 0,-1.158 0,-2.09 0,-3.022 0,-17.864 0,-35.729 -0.001,-53.594 0,-0.705 0.042,-1.416 -0.027,-2.115 -0.314,-3.177 -3.97,-4.829 -6.496,-2.854 -0.663,0.517 -1.082,1.485 -1.348,2.329 -0.225,0.716 -0.076,1.553 -0.076,2.336 -0.002,17.943 -0.002,35.887 -0.002,53.83 0,0.936 0,1.871 0,3.08 -0.937,0.058 -1.759,0.151 -2.582,0.155 -3.761,0.017 -7.524,0.081 -11.282,-0.011 -3.427,-0.083 -4.333,2.868 -3.807,5.102 0.416,1.766 1.465,2.639 3.306,2.802 0.623,0.055 1.253,0.034 1.88,0.034 10.656,0.002 21.312,0.002 31.968,0.001 0.471,0 0.941,0.013 1.411,-0.009 C 15.482,7.945 16.879,6.55 16.915,4.11 16.95,1.678 15.547,0.206 12.987,0.169 9.227,0.113 5.465,0.155 1.704,0.143 1.245,0.142 0.786,0.069 0,0" /></g><g
           transform="translate(338.9036,122.5823)"
           id="g60"><path
             id="path62"
             style="fill:#1c1b18;fill-opacity:1;fill-rule:nonzero;stroke:none"
             d="m 0,0 c 0,9.939 0,19.878 0.001,29.817 0,0.626 -0.037,1.256 0.023,1.877 0.211,2.197 1.749,3.574 3.908,3.54 2.177,-0.034 3.64,-1.405 3.827,-3.624 0.052,-0.622 0.023,-1.252 0.023,-1.878 0,-19.878 0.001,-39.755 -0.001,-59.633 -10e-4,-0.704 0.037,-1.416 -0.048,-2.111 -0.236,-1.942 -1.666,-3.223 -3.636,-3.329 -1.981,-0.106 -3.711,1.23 -4.026,3.182 -0.11,0.688 -0.068,1.404 -0.068,2.107 C -0.001,-20.034 0,-10.017 0,0" /></g><g
           transform="translate(675.1796,63.185)"
           id="g64"><path
             id="path66"
             style="fill:#1c1b18;fill-opacity:1;fill-rule:nonzero;stroke:none"
             d="m 0,0 c 0,-9.861 0,-19.721 0,-29.582 -0.001,-0.626 0.029,-1.255 -0.017,-1.878 -0.164,-2.245 -1.593,-3.662 -3.735,-3.737 -2.177,-0.077 -3.831,1.443 -4.015,3.718 -0.045,0.545 -0.015,1.096 -0.015,1.643 -0.001,19.957 -0.001,39.913 0,59.869 0,0.548 -0.025,1.098 0.016,1.643 0.172,2.265 1.589,3.656 3.746,3.703 2.28,0.05 3.814,-1.35 3.999,-3.685 C 0.028,31.072 -0.001,30.443 0,29.817 0,19.878 0,9.939 0,0" /></g></g></g><g
       id="g68"><g
         clip-path="url(#clipPath72)"
         id="g70"><g
           id="g76"><g
             id="g78"><path
               id="path90"
               style="fill:url(#linearGradient80);stroke:none"
               d="m 671.256,137.61 c -5.424,-0.016 -9.644,-4.274 -9.638,-9.724 l 0,0 c 0.007,-5.398 4.324,-9.723 9.691,-9.708 l 0,0 c 5.361,0.015 9.655,4.359 9.649,9.761 l 0,0 c -0.006,5.407 -4.274,9.672 -9.671,9.671 l 0,0 c -0.01,0 -0.021,0 -0.031,0" /></g></g></g></g><g
       id="g92"><g
         clip-path="url(#clipPath96)"
         id="g94"><g
           id="g100"><g
             id="g102"><path
               id="path114"
               style="fill:url(#linearGradient104);stroke:none"
               d="m 671.256,173.986 c -5.424,-0.016 -9.644,-4.274 -9.638,-9.723 l 0,0 c 0.007,-5.399 4.324,-9.724 9.691,-9.709 l 0,0 c 5.361,0.016 9.655,4.359 9.649,9.763 l 0,0 c -0.006,5.406 -4.274,9.67 -9.671,9.669 l 0,0 c -0.01,0 -0.021,0 -0.031,0" /></g></g></g></g><g
       id="g116"><g
         id="g118"><g
           id="g124"><g
             id="g126"><path
               id="path138"
               style="fill:url(#linearGradient128);stroke:none"
               d="m 668.74,210.363 c -5.424,-0.017 -9.644,-4.274 -9.638,-9.724 l 0,0 c 0.007,-5.398 4.325,-9.723 9.692,-9.709 l 0,0 c 5.361,0.016 9.655,4.359 9.649,9.763 l 0,0 c -0.007,5.406 -4.274,9.671 -9.672,9.67 l 0,0 c -0.01,0 -0.021,0 -0.031,0" /></g></g></g></g><g
       id="g140"><g
         clip-path="url(#clipPath144)"
         id="g142"><g
           transform="translate(500.3128,37.202)"
           id="g148"><path
             id="path150"
             style="fill:#1c1b18;fill-opacity:1;fill-rule:nonzero;stroke:none"
             d="m 0,0 c 0.038,0.753 0.106,1.506 0.109,2.259 0.012,3.6 0,7.201 0.011,10.801 0.002,0.623 -0.074,1.308 0.156,1.849 0.17,0.398 0.779,0.834 1.197,0.839 0.42,0.005 1.014,-0.412 1.226,-0.808 C 2.934,14.5 2.858,13.875 2.858,13.33 2.866,6.99 2.873,0.65 2.851,-5.689 2.848,-6.656 3.172,-7.941 1.818,-8.237 c -1.393,-0.303 -1.807,0.96 -2.296,1.92 -2.09,4.112 -4.156,8.237 -6.243,12.35 -0.259,0.51 -0.589,0.983 -1.285,1.374 0,-0.669 0,-1.338 0,-2.007 0,-3.601 0.004,-7.201 -0.005,-10.802 C -8.013,-6.026 -7.94,-6.7 -8.149,-7.258 -8.31,-7.685 -8.89,-8.272 -9.231,-8.24 c -0.505,0.048 -1.118,0.487 -1.397,0.938 -0.254,0.411 -0.158,1.06 -0.158,1.604 -0.008,6.261 -0.018,12.523 0.009,18.784 0.004,0.956 -0.354,2.206 1.028,2.549 1.493,0.371 1.77,-0.946 2.25,-1.886 C -5.435,9.711 -3.39,5.664 -1.327,1.625 -1.029,1.04 -0.673,0.483 -0.343,-0.087 -0.229,-0.058 -0.114,-0.029 0,0" /></g><g
           transform="translate(249.5019,41.0479)"
           id="g152"><path
             id="path154"
             style="fill:#1c1b18;fill-opacity:1;fill-rule:nonzero;stroke:none"
             d="m 0,0 c 0,-1.796 -0.135,-3.607 0.052,-5.384 0.107,-1.014 0.492,-2.22 1.181,-2.91 1.743,-1.743 4.06,-1.494 6.18,-0.927 1.995,0.532 2.697,2.268 2.725,4.204 0.047,3.357 0.114,6.72 -0.021,10.073 C 9.988,8.277 8.614,9.441 5.342,9.481 4.874,9.487 4.404,9.485 3.938,9.446 1.45,9.239 0.097,7.875 0.013,5.389 -0.047,3.594 0.002,1.796 0,0 m 12.919,0.1 c 0,-1.798 0.056,-3.599 -0.011,-5.395 -0.161,-4.365 -2.794,-6.923 -7.138,-7.003 -0.547,-0.01 -1.095,-0.013 -1.642,0.003 -3.827,0.112 -6.651,2.554 -6.831,6.33 -0.193,4.056 -0.201,8.139 0.022,12.193 0.205,3.731 2.545,5.796 6.254,5.987 1.247,0.065 2.511,0.083 3.748,-0.054 3.014,-0.332 5.086,-2.246 5.394,-5.271 0.229,-2.241 0.045,-4.525 0.045,-6.789 0.053,0 0.106,-0.001 0.159,-0.001" /></g><g
           transform="translate(174.4672,37.9713)"
           id="g156"><path
             id="path158"
             style="fill:#1c1b18;fill-opacity:1;fill-rule:nonzero;stroke:none"
             d="M 0,0 5.577,0 C 4.655,2.968 3.804,5.705 2.954,8.442 2.789,8.435 2.625,8.429 2.46,8.422 1.666,5.705 0.873,2.988 0,0 m 6.424,-3.079 -7.333,0 c -0.408,-1.348 -0.774,-2.616 -1.179,-3.87 -0.167,-0.516 -0.292,-1.181 -0.67,-1.457 -0.426,-0.311 -1.172,-0.447 -1.672,-0.298 -0.325,0.097 -0.582,0.821 -0.643,1.294 -0.055,0.433 0.179,0.91 0.31,1.361 1.822,6.229 3.654,12.455 5.469,18.686 0.307,1.054 0.44,2.329 1.85,2.364 1.569,0.04 1.689,-1.36 2.024,-2.465 C 5.647,9.019 6.71,5.501 7.771,1.983 8.517,-0.488 9.258,-2.959 9.999,-5.43 c 0.135,-0.45 0.234,-0.912 0.396,-1.351 0.35,-0.952 0.244,-1.752 -0.834,-2.052 -0.954,-0.266 -1.438,0.349 -1.7,1.184 -0.468,1.487 -0.935,2.975 -1.437,4.57" /></g><g
           transform="translate(277.2905,40.6643)"
           id="g160"><path
             id="path162"
             style="fill:#1c1b18;fill-opacity:1;fill-rule:nonzero;stroke:none"
             d="M 0,0 C -0.001,-1.643 -0.048,-3.288 0.01,-4.929 0.101,-7.538 1.28,-8.8 3.862,-9.05 4.79,-9.14 5.747,-9.14 6.67,-9.021 c 1.985,0.255 3.061,1.304 3.488,3.26 0.083,0.38 0.092,0.775 0.132,1.164 0.087,0.832 0.545,1.276 1.384,1.275 0.871,-10e-4 1.22,-0.558 1.35,-1.333 0.438,-2.631 -1.28,-5.766 -3.806,-6.622 -2.742,-0.929 -5.551,-0.904 -8.294,0.05 -1.735,0.603 -2.905,1.837 -3.297,3.671 -0.211,0.99 -0.393,2.006 -0.41,3.013 -0.052,3.129 -0.085,6.261 -0.004,9.389 0.14,5.454 2.264,7.644 8.104,7.631 1.65,-0.003 3.396,-0.566 4.925,-1.257 1.765,-0.798 2.66,-2.426 2.383,-4.428 C 12.561,6.329 11.948,5.656 11.523,5.603 11.053,5.545 10.155,6.003 10.062,6.386 9.768,7.598 9.394,8.762 8.148,9.113 6.824,9.486 5.392,9.755 4.033,9.667 1.376,9.496 0.128,8.081 0.015,5.399 -0.06,3.602 0.001,1.8 0,0" /></g><g
           transform="translate(50.6088,40.8451)"
           id="g164"><path
             id="path166"
             style="fill:#1c1b18;fill-opacity:1;fill-rule:nonzero;stroke:none"
             d="m 0,0 c 0,2.114 -0.117,4.237 0.027,6.341 0.229,3.363 1.869,5.03 5.168,5.738 2.054,0.44 4.064,0.299 6.046,-0.243 2.343,-0.639 3.871,-2.336 4.057,-4.369 0.08,-0.876 0.126,-1.825 -0.996,-2.08 -1.054,-0.24 -1.625,0.352 -1.79,1.357 C 12.238,8.415 11.001,9.097 9.573,9.378 8.518,9.586 7.378,9.607 6.312,9.457 3.926,9.122 2.804,7.966 2.729,5.556 2.615,1.877 2.625,-1.81 2.714,-5.491 c 0.053,-2.182 1.125,-3.35 3.243,-3.666 1.147,-0.171 2.357,-0.169 3.508,-0.015 1.967,0.264 2.966,1.387 3.3,3.408 0.051,0.309 0.044,0.627 0.098,0.934 0.157,0.897 0.65,1.421 1.611,1.311 0.896,-0.103 1.057,-0.756 1.118,-1.525 0.273,-3.408 -1.51,-6.145 -4.876,-6.681 -2.109,-0.335 -4.374,-0.205 -6.492,0.16 -2.613,0.451 -4.023,2.363 -4.183,4.988 C -0.092,-4.392 0.014,-2.193 0.014,0 0.009,0 0.005,0 0,0" /></g><g
           transform="translate(523.2251,46.5982)"
           id="g168"><path
             id="path170"
             style="fill:#1c1b18;fill-opacity:1;fill-rule:nonzero;stroke:none"
             d="M 0,0 C -0.146,-0.02 -0.291,-0.039 -0.437,-0.059 -1.254,-2.893 -2.07,-5.727 -2.913,-8.653 l 5.565,0 C 1.723,-5.622 0.862,-2.811 0,0 m 3.482,-11.658 -7.202,0 c -0.331,-0.982 -0.678,-1.992 -1.012,-3.005 -0.22,-0.668 -0.265,-1.47 -0.677,-1.976 -0.367,-0.451 -1.141,-0.815 -1.718,-0.793 -0.901,0.034 -0.988,0.851 -0.848,1.606 0.071,0.381 0.223,0.747 0.332,1.122 1.798,6.233 3.595,12.465 5.395,18.697 0.087,0.301 0.221,0.589 0.293,0.892 0.198,0.845 0.665,1.456 1.562,1.505 1.032,0.057 1.51,-0.631 1.782,-1.537 2.02,-6.737 4.059,-13.47 6.054,-20.215 0.143,-0.486 0.133,-1.13 -0.077,-1.571 -0.147,-0.307 -0.818,-0.611 -1.149,-0.522 -0.442,0.12 -0.968,0.549 -1.131,0.971 -0.59,1.521 -1.043,3.096 -1.604,4.826" /></g><g
           transform="translate(88.1338,37.8776)"
           id="g172"><path
             id="path174"
             style="fill:#1c1b18;fill-opacity:1;fill-rule:nonzero;stroke:none"
             d="M 0,0 C -0.963,3.124 -1.829,5.933 -2.696,8.743 -2.822,8.74 -2.948,8.737 -3.075,8.734 -3.908,5.876 -4.742,3.017 -5.621,0 L 0,0 Z m 0.821,-2.971 -7.278,0 C -6.848,-4.215 -7.231,-5.47 -7.64,-6.717 -7.809,-7.233 -7.901,-7.884 -8.266,-8.195 -8.671,-8.54 -9.364,-8.746 -9.901,-8.694 c -0.777,0.075 -0.879,0.786 -0.772,1.455 0.062,0.382 0.204,0.752 0.312,1.127 1.821,6.308 3.64,12.616 5.463,18.924 0.108,0.376 0.138,0.84 0.38,1.097 0.446,0.475 1.025,1.144 1.546,1.141 0.528,-0.002 1.127,-0.655 1.551,-1.146 0.283,-0.327 0.321,-0.869 0.456,-1.318 C 0.867,6.444 2.698,0.301 4.525,-5.843 4.659,-6.291 4.92,-6.776 4.844,-7.194 4.746,-7.728 4.492,-8.432 4.08,-8.665 3.386,-9.056 2.702,-8.706 2.428,-7.894 1.902,-6.34 1.408,-4.775 0.821,-2.971" /></g><g
           transform="translate(327.5786,37.9203)"
           id="g176"><path
             id="path178"
             style="fill:#1c1b18;fill-opacity:1;fill-rule:nonzero;stroke:none"
             d="M 0,0 C -0.103,2.052 -1.703,7.167 -2.731,8.676 -3.562,5.799 -4.375,2.99 -5.239,0 L 0,0 Z M 1.183,-3 -6.1,-3 c -0.376,-1.22 -0.736,-2.407 -1.111,-3.589 -0.165,-0.52 -0.217,-1.204 -0.578,-1.502 -0.466,-0.385 -1.218,-0.662 -1.791,-0.583 -0.303,0.042 -0.58,0.918 -0.693,1.455 -0.071,0.337 0.184,0.742 0.292,1.117 1.821,6.308 3.642,12.617 5.464,18.924 0.087,0.3 0.208,0.591 0.29,0.893 0.234,0.856 0.816,1.49 1.66,1.32 0.575,-0.115 1.111,-0.722 1.525,-1.223 0.278,-0.336 0.322,-0.87 0.456,-1.319 C 1.224,6.426 3.032,0.359 4.837,-5.71 4.992,-6.233 5.283,-6.789 5.212,-7.287 5.137,-7.809 4.819,-8.508 4.399,-8.723 3.689,-9.087 3.037,-8.702 2.77,-7.889 2.258,-6.331 1.757,-4.77 1.183,-3" /></g><g
           transform="translate(227.0525,53.2495)"
           id="g180"><path
             id="path182"
             style="fill:#1c1b18;fill-opacity:1;fill-rule:nonzero;stroke:none"
             d="M 0,0 C 2.632,-0.007 4.508,-0.818 5.948,-2.556 6.538,-3.268 6.914,-4.092 6.111,-4.848 5.314,-5.597 4.539,-5.27 3.889,-4.52 2.37,-2.764 0.52,-2.374 -1.618,-3.196 c -1.167,-0.449 -2.025,-1.199 -2.22,-2.494 -0.19,-1.261 0.52,-2.116 1.494,-2.708 1.332,-0.811 2.741,-1.495 4.104,-2.258 1.226,-0.686 2.519,-1.293 3.632,-2.134 2.382,-1.802 3.096,-4.289 2.222,-7.097 -0.874,-2.804 -3.129,-4.59 -6.053,-4.724 -2.28,-0.103 -4.345,0.561 -6.072,2.06 -0.571,0.495 -1.105,1.165 -1.344,1.862 -0.15,0.435 0.138,1.225 0.502,1.564 0.262,0.244 1.043,0.151 1.464,-0.055 0.46,-0.225 0.749,-0.778 1.15,-1.146 1.352,-1.238 2.923,-1.783 4.749,-1.38 1.515,0.334 2.46,1.32 2.924,2.76 0.466,1.444 -0.032,2.669 -1.163,3.55 -1.1,0.858 -2.31,1.585 -3.512,2.302 -1.341,0.8 -2.779,1.446 -4.082,2.3 -2.052,1.342 -3.229,3.23 -2.766,5.765 0.471,2.579 2.149,4.093 4.664,4.691 C -1.169,-0.159 -0.393,-0.067 0,0" /></g><g
           transform="translate(427.7436,50.2864)"
           id="g184"><path
             id="path186"
             style="fill:#1c1b18;fill-opacity:1;fill-rule:nonzero;stroke:none"
             d="m 0,0 0,-7.65 c 1.483,0 2.869,0.005 4.255,-0.002 C 4.88,-7.656 5.51,-7.642 6.129,-7.71 6.904,-7.795 7.473,-8.178 7.455,-9.05 7.437,-9.879 6.947,-10.386 6.146,-10.429 4.82,-10.5 3.488,-10.475 2.159,-10.487 1.537,-10.492 0.914,-10.488 0.096,-10.488 l 0,-8.165 c 2.005,0 3.941,0.003 5.876,-0.002 0.626,-0.002 1.319,0.136 1.856,-0.088 0.466,-0.196 1.032,-0.805 1.045,-1.247 0.014,-0.456 -0.537,-0.981 -0.942,-1.372 -0.172,-0.166 -0.6,-0.085 -0.911,-0.085 -2.66,-0.005 -5.321,-0.041 -7.981,0.013 -1.615,0.033 -1.896,0.32 -1.903,1.965 -0.028,6.729 -0.028,13.458 0,20.187 0.007,1.675 0.283,1.999 1.863,2.038 C 1.814,2.824 4.633,2.823 7.448,2.749 8.756,2.715 9.461,1.655 8.823,0.759 8.53,0.346 7.804,0.075 7.256,0.041 5.697,-0.056 4.128,0.002 2.563,0 1.795,-0.001 1.027,0 0,0" /></g><g
           transform="translate(130.9368,50.0512)"
           id="g188"><path
             id="path190"
             style="fill:#1c1b18;fill-opacity:1;fill-rule:nonzero;stroke:none"
             d="m 0,0 0,-2.535 0,-4.88 c 1.742,0 3.213,0.006 4.684,-0.003 0.546,-0.004 1.158,0.103 1.621,-0.105 0.493,-0.221 1.076,-0.692 1.207,-1.168 0.212,-0.77 -0.331,-1.381 -1.129,-1.477 C 5.457,-10.28 4.51,-10.241 3.572,-10.25 2.491,-10.26 1.408,-10.252 0.164,-10.252 l 0,-8.166 c 1.841,0 3.688,10e-4 5.534,0 0.626,-0.001 1.252,-0.004 1.878,-0.01 0.935,-0.009 1.489,-0.444 1.469,-1.417 -0.022,-0.987 -0.647,-1.352 -1.548,-1.362 -0.939,-0.011 -1.878,-0.009 -2.817,-0.009 -1.878,0 -3.757,-0.045 -5.633,0.019 -1.52,0.052 -1.799,0.314 -1.806,1.823 -0.031,6.807 -0.031,13.614 -10e-4,20.421 0.007,1.587 0.332,1.911 1.956,1.949 2.659,0.062 5.32,0.051 7.98,0.008 C 8.624,2.98 9.18,2.517 9.107,1.548 9.005,0.204 7.98,0.252 7.03,0.243 5.074,0.226 3.118,0.235 1.162,0.215 0.864,0.212 0.566,0.108 0,0" /></g><g
           transform="translate(201.7932,53.2441)"
           id="g192"><path
             id="path194"
             style="fill:#1c1b18;fill-opacity:1;fill-rule:nonzero;stroke:none"
             d="m 0,0 c 2.652,0.007 4.475,-0.756 5.901,-2.377 0.949,-1.08 1.064,-1.865 0.364,-2.459 -0.958,-0.813 -1.699,-0.31 -2.399,0.466 -1.568,1.739 -3.48,2 -5.553,1.108 -2.482,-1.068 -2.8,-3.585 -0.583,-5.109 1.408,-0.967 3.015,-1.641 4.52,-2.469 1.026,-0.564 2.088,-1.088 3.033,-1.768 2.486,-1.789 3.29,-4.273 2.454,-7.24 -0.761,-2.699 -3.15,-4.613 -6.032,-4.753 -2.455,-0.118 -4.64,0.641 -6.428,2.34 -0.487,0.463 -0.905,1.115 -1.076,1.755 -0.108,0.403 0.171,1.136 0.515,1.37 0.342,0.232 1.053,0.174 1.473,-0.028 0.459,-0.221 0.748,-0.777 1.15,-1.144 1.35,-1.231 2.922,-1.805 4.744,-1.399 1.493,0.333 2.465,1.279 2.919,2.746 0.448,1.445 0.025,2.683 -1.117,3.562 -1.168,0.899 -2.455,1.646 -3.72,2.411 -1.402,0.848 -2.902,1.547 -4.242,2.479 -1.968,1.369 -2.823,3.302 -2.328,5.716 0.494,2.408 2.075,3.778 4.365,4.398 C -1.217,-0.172 -0.362,-0.068 0,0" /></g><g
           transform="translate(452.0148,38.7303)"
           id="g196"><path
             id="path198"
             style="fill:#1c1b18;fill-opacity:1;fill-rule:nonzero;stroke:none"
             d="M 0,0 C 1.609,0 3.087,-0.107 4.542,0.027 6.296,0.19 7.262,1.01 7.369,2.621 7.513,4.794 7.422,6.987 7.345,9.169 7.309,10.202 6.642,10.923 5.668,11.213 3.776,11.775 1.875,11.64 0,11.362 L 0,0 Z m -0.146,-2.85 c 0,-1.562 0.01,-2.87 -0.005,-4.177 -0.007,-0.624 0.079,-1.306 -0.144,-1.852 -0.168,-0.413 -0.753,-0.891 -1.165,-0.904 -0.408,-0.012 -0.994,0.438 -1.207,0.842 -0.233,0.443 -0.167,1.064 -0.168,1.608 -0.009,6.339 -0.02,12.678 10e-4,19.017 0.007,2.482 0.181,2.652 2.699,2.647 1.953,-0.004 3.923,0.037 5.854,-0.2 2.807,-0.343 4.325,-2.016 4.476,-4.85 0.12,-2.262 0.12,-4.542 -0.007,-6.803 C 10,-0.844 8.181,-2.604 4.802,-2.832 3.259,-2.936 1.703,-2.85 -0.146,-2.85" /></g><g
           transform="translate(108.0877,50.2865)"
           id="g200"><path
             id="path202"
             style="fill:#1c1b18;fill-opacity:1;fill-rule:nonzero;stroke:none"
             d="m 0,0 0,-7.514 c 1.27,-0.045 2.556,-0.095 3.841,-0.134 0.704,-0.022 1.411,0.013 2.11,-0.048 0.881,-0.076 1.494,-0.496 1.428,-1.487 -0.058,-0.856 -0.632,-1.241 -1.414,-1.266 -1.485,-0.046 -2.972,-0.022 -4.458,-0.046 -0.454,-0.008 -0.908,-0.077 -1.631,-0.141 0,-2.627 0.004,-5.186 -0.004,-7.744 -0.002,-0.624 0.148,-1.356 -0.123,-1.843 -0.286,-0.513 -0.961,-1.006 -1.527,-1.089 -0.309,-0.045 -0.825,0.734 -1.094,1.225 -0.166,0.304 -0.051,0.766 -0.051,1.157 -10e-4,6.413 -0.01,12.827 0.004,19.241 0.004,2.243 0.181,2.434 2.369,2.465 C 1.952,2.812 4.456,2.803 6.958,2.765 7.483,2.757 8.154,2.686 8.483,2.364 8.792,2.062 8.943,1.308 8.785,0.901 8.632,0.512 8.008,0.101 7.564,0.068 6.086,-0.044 4.595,0.007 3.11,0.001 2.113,-0.004 1.117,0 0,0" /></g><g
           transform="translate(386.4636,50.2865)"
           id="g204"><path
             id="path206"
             style="fill:#1c1b18;fill-opacity:1;fill-rule:nonzero;stroke:none"
             d="m 0,0 0,-7.65 c 1.421,0 2.734,0.004 4.048,-0.002 0.625,-0.002 1.253,0.013 1.875,-0.041 0.879,-0.076 1.502,-0.477 1.449,-1.47 -0.047,-0.855 -0.609,-1.233 -1.396,-1.286 -0.701,-0.047 -1.407,-0.034 -2.11,-0.037 -1.237,-0.004 -2.474,-10e-4 -3.998,-10e-4 0,-2.678 0.005,-5.158 -0.003,-7.638 -0.003,-0.703 0.148,-1.495 -0.125,-2.081 -0.242,-0.518 -0.942,-1.018 -1.508,-1.112 -0.306,-0.05 -0.836,0.723 -1.11,1.212 -0.169,0.3 -0.053,0.765 -0.053,1.156 -10e-4,6.413 -0.01,12.827 0.003,19.24 0.005,2.269 0.171,2.452 2.35,2.486 C 1.846,2.814 4.271,2.787 6.695,2.78 7.085,2.779 7.58,2.869 7.839,2.671 8.275,2.338 8.746,1.851 8.863,1.349 9.022,0.67 8.541,0.127 7.81,0.079 6.641,0.003 5.467,0.012 4.295,0.003 2.904,-0.008 1.513,0 0,0" /></g><g
           transform="translate(347.3673,50.2924)"
           id="g208"><path
             id="path210"
             style="fill:#1c1b18;fill-opacity:1;fill-rule:nonzero;stroke:none"
             d="M 0,0 C -1.557,0 -2.867,0.006 -4.176,-0.002 -5.118,-0.008 -5.97,0.18 -5.976,1.329 -5.981,2.412 -5.243,2.776 -4.247,2.774 -0.575,2.768 3.097,2.773 6.77,2.769 7.003,2.768 7.321,2.818 7.453,2.691 7.858,2.301 8.397,1.883 8.507,1.391 8.686,0.584 8.15,0.056 7.302,0.037 5.911,0.005 4.519,0.028 2.95,0.028 2.891,-0.969 2.808,-1.72 2.807,-2.472 2.795,-7.785 2.801,-13.098 2.8,-18.412 c 0,-0.547 -0.006,-1.094 -0.016,-1.64 -0.016,-0.859 -0.564,-1.431 -1.302,-1.29 -0.539,0.104 -1.108,0.715 -1.4,1.245 -0.233,0.424 -0.08,1.068 -0.08,1.614 C -0.001,-13.169 0,-7.856 0,-2.543 0,-1.784 0,-1.026 0,0" /></g><g
           transform="translate(545.3546,31.6333)"
           id="g212"><path
             id="path214"
             style="fill:#1c1b18;fill-opacity:1;fill-rule:nonzero;stroke:none"
             d="M 0,0 C 2.292,0 4.24,0.002 6.187,-0.001 6.814,-0.002 7.495,0.131 8.05,-0.072 8.539,-0.25 9.112,-0.749 9.247,-1.221 9.465,-1.988 8.937,-2.549 8.145,-2.734 7.845,-2.804 7.522,-2.794 7.21,-2.795 4.624,-2.799 2.038,-2.828 -0.547,-2.786 c -1.713,0.027 -2.066,0.374 -2.133,2.073 -0.061,1.565 -0.018,3.134 -0.018,4.701 0,4.78 -0.002,9.559 0.002,14.339 0.001,0.626 -0.127,1.318 0.096,1.859 0.197,0.477 0.754,1.019 1.236,1.117 0.792,0.161 1.303,-0.387 1.339,-1.241 0.022,-0.548 0.023,-1.097 0.023,-1.645 C 0,13.167 0,7.917 0,2.667 0,1.895 0,1.124 0,0" /></g><g
           transform="translate(391.4475,185.4982)"
           id="g216"><path
             id="path218"
             style="fill:#1c1b18;fill-opacity:1;fill-rule:nonzero;stroke:none"
             d="m 0,0 c 1.549,0.01 2.785,-0.609 3.436,-2.021 0.785,-1.703 1.532,-3.437 2.103,-5.219 0.686,-2.145 -0.281,-4.099 -2.181,-4.831 -1.988,-0.765 -4.132,0.102 -5.037,2.196 -0.743,1.719 -1.414,3.489 -1.903,5.294 C -4.258,-2.086 -2.578,-0.037 0,0" /></g><g
           transform="translate(476.5447,40.8717)"
           id="g220"><path
             id="path222"
             style="fill:#1c1b18;fill-opacity:1;fill-rule:nonzero;stroke:none"
             d="m 0,0 c 0,-3.048 0.001,-6.097 -0.001,-9.145 0,-0.469 0.023,-0.942 -0.026,-1.406 -0.094,-0.885 -0.544,-1.508 -1.499,-1.439 -0.825,0.06 -1.195,0.637 -1.196,1.454 0,1.173 -0.01,2.345 -0.01,3.518 -10e-4,5.315 -10e-4,10.63 0,15.945 0,0.469 0.021,0.939 -0.002,1.407 -0.048,0.974 0.2,1.782 1.337,1.768 1.104,-0.014 1.392,-0.822 1.392,-1.784 -0.001,-3.44 0,-6.879 0,-10.318 L 0,0 Z" /></g><g
           transform="translate(305.5416,41.0402)"
           id="g224"><path
             id="path226"
             style="fill:#1c1b18;fill-opacity:1;fill-rule:nonzero;stroke:none"
             d="m 0,0 c 0.001,-3.124 0.002,-6.247 -0.001,-9.371 -0.001,-0.546 0.129,-1.164 -0.082,-1.618 -0.22,-0.477 -0.777,-1.102 -1.19,-1.104 -0.446,-10e-4 -1.01,0.568 -1.304,1.028 -0.22,0.344 -0.115,0.91 -0.115,1.377 -0.005,6.403 -0.004,12.807 -0.004,19.21 0,0.078 -10e-4,0.156 0.002,0.234 0.056,1.636 0.46,2.287 1.44,2.19 C 0.073,11.815 0,10.794 0,9.839 -0.001,6.56 0,3.28 0,0" /></g><g
           transform="translate(370.432,41.04)"
           id="g228"><path
             id="path230"
             style="fill:#1c1b18;fill-opacity:1;fill-rule:nonzero;stroke:none"
             d="m 0,0 c 0.001,-3.124 0.003,-6.247 -0.001,-9.371 0,-0.546 0.128,-1.163 -0.083,-1.618 -0.221,-0.477 -0.778,-1.103 -1.189,-1.104 -0.447,-0.002 -1.011,0.568 -1.305,1.028 -0.219,0.344 -0.113,0.91 -0.114,1.377 -0.005,6.403 -0.003,12.807 -0.003,19.21 0,0.078 -0.001,0.156 10e-4,0.234 0.055,1.634 0.461,2.288 1.44,2.191 1.327,-0.131 1.253,-1.154 1.253,-2.108 C -0.002,6.56 -0.001,3.28 0,0" /></g><g
           transform="translate(433.3193,61.6296)"
           id="g232"><path
             id="path234"
             style="fill:#1c1b18;fill-opacity:1;fill-rule:nonzero;stroke:none"
             d="m 0,0 c -0.005,-1.787 -1.025,-3.223 -1.99,-3.174 -0.838,0.041 -1.253,0.511 -1.248,1.358 0.01,1.419 1.017,2.942 1.954,2.741 C -0.737,0.807 -0.291,0.222 0,0" /></g><g
           transform="translate(135.3317,62.9541)"
           id="g236"><path
             id="path238"
             style="fill:#1c1b18;fill-opacity:1;fill-rule:nonzero;stroke:none"
             d="m 0,0 c 0.552,-0.597 1.025,-0.915 1.21,-1.354 0.317,-0.755 -0.574,-2.83 -1.303,-3.01 -0.457,-0.113 -1.168,-0.038 -1.478,0.256 -0.857,0.813 -0.28,1.767 0.125,2.563 C -1.168,-1 -0.588,-0.608 0,0" /></g><g
           transform="translate(663.9554,232.3215)"
           id="g240"><path
             id="path242"
             style="fill:#1c1b18;fill-opacity:1;fill-rule:nonzero;stroke:none"
             d="m 0,0 c 0.004,0.001 0.009,0.002 0.013,0.002 -15.737,44.763 -43.917,80.287 -83.781,106.866 -34.43,22.954 -72.559,34.886 -113.885,36.694 -16.978,0.742 -33.828,-0.39 -50.525,-3.475 -30.905,-5.71 -59.455,-17.278 -85.343,-35.14 -36.273,-25.026 -62.787,-57.906 -78.764,-99.076 -8.461,-21.801 -12.986,-44.442 -13.433,-67.834 -0.214,-11.2 -0.036,-22.408 -0.036,-33.613 l -0.102,0 c 0,-13.635 -0.003,-27.269 0.005,-40.904 10e-4,-1.566 0.005,-3.137 0.118,-4.697 0.161,-2.239 1.893,-3.689 4.126,-3.563 2.199,0.124 3.633,1.704 3.686,4.333 0.076,3.76 0.021,7.523 0.021,11.284 10e-4,22.018 -0.118,44.036 0.043,66.053 0.114,15.653 2.425,31.052 6.489,46.168 9.601,35.709 27.667,66.556 54.224,92.203 41.093,39.685 90.596,59.386 147.546,60.577 17.291,0.361 34.417,-1.511 51.26,-5.517 51.737,-12.306 93.605,-39.624 124.877,-82.751 11.334,-15.63 19.967,-32.491 26.139,-50.419 0.029,0.026 0.058,0.05 0.087,0.076 0.559,-1.455 1.96,-2.493 3.612,-2.493 2.141,0 3.878,1.737 3.878,3.878 C 0.255,-0.872 0.157,-0.421 0,0" /></g></g></g></g></svg>